<svg width="1512" height="325" viewBox="0 0 1512 325" fill="none" xmlns="http://www.w3.org/2000/svg">
<path d="M143.689 -14.572L201.718 324.305H129.15L122.365 285.56H34.353L27.5679 324.305H-45L13.0285 -14.572H143.689ZM110.863 217.836L82.8177 53.2163H74.094L46.0491 217.836H110.863Z" fill="white"/>
<path d="M233.958 149.983H214.637V82.1948H233.958C234.928 18.8049 246.042 -11.7258 323.456 -13.6663H403.262V54.1222H328.303C308.917 54.6396 303.166 64.2775 301.68 82.1948H354.926V149.983H301.68V324.305H233.958V149.983Z" fill="white"/>
<path d="M523.579 83.1652H585.485V150.954H528.425C488.296 151.471 483.902 173.722 483.902 201.795V324.306H416.181V198.431C416.633 126.762 426.779 85.1704 523.579 83.2299V83.1652Z" fill="white"/>
<path d="M598.404 25.5319C598.404 3.73358 616.756 -14.6365 638.533 -14.6365C660.309 -14.6365 678.661 3.73358 678.661 25.5319C678.661 47.3303 660.309 65.7005 638.533 65.7005C616.756 65.7005 598.404 47.3303 598.404 25.5319ZM604.672 82.1948H672.393V324.305H604.672V82.1948Z" fill="white"/>
<path d="M768.93 82.1948L803.76 256.517H816.361L851.191 82.1948H928.605L880.205 324.305H739.916L691.58 82.1948H768.995H768.93Z" fill="white"/>
<path d="M941.524 25.5319C941.524 3.73358 959.876 -14.6365 981.653 -14.6365C1003.43 -14.6365 1021.78 3.73358 1021.78 25.5319C1021.78 47.3303 1003.43 65.7005 981.653 65.7005C959.876 65.7005 941.524 47.3303 941.524 25.5319ZM947.792 82.1948H1015.51V324.305H947.792V82.1948Z" fill="white"/>
<path d="M1034.7 -18H1102.42V91.8974C1116.96 78.8313 1136.74 73.98 1162.39 73.98C1205.43 73.98 1262.03 95.2609 1262.03 199.854C1262.03 304.448 1204 324.305 1163.88 324.305C1130.47 324.305 1112.12 308.781 1102.42 287.048V320.942H1034.7V-18ZM1147.4 256.517C1174.02 256.517 1192.89 241.51 1192.89 200.825C1192.89 172.752 1188.04 141.768 1146.43 141.768C1109.21 141.768 1102.42 172.752 1102.42 202.765V211.497C1102.42 246.362 1121.81 256.517 1147.4 256.517Z" fill="white"/>
<path d="M1393.85 75.4677C1469.78 75.4677 1502.22 115.183 1502.22 165.054C1502.22 195.585 1496.92 210.074 1486.71 218.807H1345C1351.78 246.426 1375.95 256.582 1411.75 256.582C1445.61 256.582 1468.36 245.456 1483.35 233.813C1485.29 232.39 1486.71 231.873 1489.17 231.873H1493.04C1495.95 231.873 1497.37 232.843 1497.89 236.206L1511.91 305.418C1491.1 319.454 1448.59 324.305 1411.82 324.305C1329.56 324.305 1274.95 291.382 1274.95 199.401C1274.95 107.421 1329.62 75.4677 1393.92 75.4677H1393.85ZM1393.34 143.256C1365.74 143.256 1351.27 154.899 1345.45 175.21H1441.22C1441.22 162.144 1429.65 143.256 1393.34 143.256Z" fill="white"/>
</svg>
