<svg width="127" height="115" viewBox="0 0 127 115" fill="none" xmlns="http://www.w3.org/2000/svg">
<path d="M117.297 86.7915V99.2732C102.154 103.231 80.7811 107.051 55.1982 106.055C37.2527 105.356 21.8464 102.46 9.69637 99.2732V16.0639C22.7871 12.4487 41.2391 8.78075 63.5 8.78075C85.7609 8.78075 104.206 12.4487 117.304 16.0639V36.0136H127V8.59603C111.548 4.3277 89.767 0 63.5 0C37.233 0 15.4523 4.3277 0 8.59603V106.807C14.3406 110.567 32.5229 113.985 53.705 114.809C83.8992 115.99 109.12 111.484 127 106.807V86.7981H117.304L117.297 86.7915Z" fill="#2D6E63"/>
<path d="M73.0805 30L80.6258 74.128H82.0401L89.5854 30H101.374L91.947 85.1584H70.7321L61.3054 30H73.0871H73.0805Z" fill="#F28221"/>
<path d="M34.4266 30H55.6416L65.0682 85.1584H53.28L52.1814 78.8516H37.8802L36.7817 85.1584H25L34.4266 30ZM50.3 67.8278L45.7413 41.037H44.3269L39.7682 67.8278H50.3Z" fill="#2D6E63"/>
<path d="M39.663 67.8278L44.327 41.0369H45.7413L50.3 67.8278H39.663Z" fill="#F7B633"/>
<path fill-rule="evenodd" clip-rule="evenodd" d="M127 89.0136V106.807C109.12 111.484 83.8992 115.99 53.705 114.809C32.5229 113.985 14.3406 110.567 0 106.807V8.59602C15.4523 4.3277 37.233 0 63.5 0C89.767 0 111.548 4.3277 127 8.59602V86.7981V89.0136ZM117.304 16.0639L117.297 86.7915L117.304 89.0136L117.297 99.2732C102.154 103.231 80.7811 107.051 55.1982 106.055C37.2527 105.356 21.8464 102.46 9.69637 99.2732V16.0639C22.7871 12.4487 41.2391 8.78075 63.5 8.78075C85.7608 8.78075 104.206 12.4487 117.304 16.0639Z" fill="#2D6E63"/>
</svg>
