<svg width="151" height="76" viewBox="0 0 151 76" fill="none" xmlns="http://www.w3.org/2000/svg">
<path d="M77.216 57.2246V65.4543C67.2473 68.0641 53.1777 70.5826 36.3367 69.9258C24.5232 69.4647 14.3814 67.5552 6.38306 65.4543V10.5915C15.0006 8.20788 27.1475 5.78945 41.8017 5.78945C56.4559 5.78945 68.5984 8.20788 77.2203 10.5915V23.745H83.6034V5.66766C73.4312 2.8534 59.0931 0 41.8017 0C24.5103 0 10.1722 2.8534 0 5.66766V70.4216C9.44035 72.901 21.4097 75.1541 35.3537 75.6978C55.2303 76.4764 71.8332 73.5056 83.6034 70.4216V57.229H77.2203L77.216 57.2246Z" fill="#2D6E63"/>
<path d="M85.1665 30.0086L87.938 46.2504H84.4737L84.1489 44.393H79.944L79.6192 46.2504H76.1549L78.9264 30.0086H85.1665ZM83.5989 41.1481L82.2565 33.2578H81.8408L80.5027 41.1481H83.5989Z" fill="#2D6E63"/>
<path d="M89.7916 37.899H88.8693V34.6497H89.7916C89.8393 31.6093 90.3676 30.1478 94.0658 30.0565H97.8766V33.3057H94.2953C93.3729 33.3274 93.0958 33.7929 93.0221 34.6497H95.5641V37.899H93.0221V46.2504H89.7873V37.899H89.7916Z" fill="#2D6E63"/>
<path d="M101.596 34.6975H104.554V37.9468H101.83C99.9119 37.9685 99.704 39.0385 99.704 40.3826V46.2504H96.4692V40.2173C96.4908 36.7854 96.9758 34.7889 101.596 34.6975Z" fill="#2D6E63"/>
<path d="M105.476 31.9355C105.476 30.8916 106.355 30.0086 107.395 30.0086C108.434 30.0086 109.313 30.8916 109.313 31.9355C109.313 32.9794 108.434 33.8624 107.395 33.8624C106.355 33.8624 105.476 32.9794 105.476 31.9355ZM105.78 34.6497H109.014V46.2504H105.78V34.6497Z" fill="#2D6E63"/>
<path d="M113.934 34.6496L115.597 43.0011H116.199L117.861 34.6496H121.555L119.247 46.2503H112.548L110.24 34.6496H113.934Z" fill="#F28221"/>
<path d="M122.482 31.9355C122.482 30.8916 123.361 30.0086 124.4 30.0086C125.44 30.0086 126.319 30.8916 126.319 31.9355C126.319 32.9794 125.44 33.8624 124.4 33.8624C123.361 33.8624 122.482 32.9794 122.482 31.9355ZM122.781 34.6497H126.016V46.2504H122.781V34.6497Z" fill="#F28221"/>
<path d="M127.241 30.0086H130.476V35.2761C131.169 34.6497 132.117 34.4192 133.338 34.4192C135.395 34.4192 138.097 35.4413 138.097 40.4522C138.097 45.4631 135.326 46.4156 133.408 46.4156C131.814 46.4156 130.935 45.6718 130.476 44.6279V46.2504H127.241V30.0086ZM132.624 43.1664C133.893 43.1664 134.793 42.4487 134.793 40.5C134.793 39.156 134.564 37.6684 132.576 37.6684C130.796 37.6684 130.476 39.1516 130.476 40.5914V41.009C130.476 42.6792 131.398 43.1664 132.624 43.1664Z" fill="#F28221"/>
<path d="M144.706 34.4887C148.33 34.4887 149.881 36.3895 149.881 38.7818C149.881 40.2433 149.629 40.9393 149.14 41.3568H142.372C142.696 42.6791 143.848 43.1663 145.559 43.1663C147.174 43.1663 148.261 42.6313 148.975 42.0745C149.066 42.0049 149.136 41.9832 149.253 41.9832H149.439C149.577 41.9832 149.647 42.031 149.668 42.192L150.34 45.5108C149.348 46.185 147.313 46.4155 145.559 46.4155C141.631 46.4155 139.02 44.8366 139.02 40.4303C139.02 36.0241 141.631 34.493 144.701 34.493L144.706 34.4887ZM144.684 37.7379C143.368 37.7379 142.675 38.2946 142.398 39.269H146.97C146.97 38.6426 146.416 37.7379 144.684 37.7379Z" fill="#F28221"/>
<path d="M25.5192 20.8568H39.4849L45.6904 57.2246H37.9303L37.2071 53.0663H27.7927L27.0695 57.2246H19.3137L25.5192 20.8568ZM35.9686 45.798L32.9676 28.1338H32.0365L29.0356 45.798H35.9686Z" fill="#2D6E63"/>
<path d="M50.9647 20.8568L55.9318 49.9519H56.8628L61.8298 20.8568H69.59L63.3844 57.2246H49.4188L43.2133 20.8568H50.9691H50.9647Z" fill="#F28221"/>
<path d="M76.17 53.3702V50.2381H76.8534V53.3702H76.17ZM76.4974 52.198V51.638H78.3245V52.198H76.4974ZM76.4974 50.8218V50.2381H78.5001V50.8218H76.4974Z" fill="#414042"/>
<path d="M79.2069 53.3702L80.2794 50.2381H81.276L82.3485 53.3702H81.6082L80.8157 50.7791H80.7445L79.9472 53.3702H79.2069ZM79.8096 52.7533V52.2882H81.8455V52.7533H79.8096Z" fill="#414042"/>
<path d="M84.6526 53.4367C84.4469 53.4367 84.2618 53.4161 84.0973 53.375C83.936 53.337 83.7968 53.2785 83.6797 53.1994C83.5658 53.1171 83.4756 53.0159 83.4092 52.8956C83.3459 52.7723 83.3095 52.6315 83.3 52.4733L83.898 52.2787C83.9043 52.4211 83.9391 52.5397 84.0024 52.6346C84.0689 52.7296 84.1622 52.7992 84.2824 52.8434C84.4026 52.8877 84.5371 52.9099 84.6858 52.9099C84.8282 52.9099 84.9484 52.8925 85.0465 52.8577C85.1445 52.8229 85.2189 52.777 85.2695 52.7201C85.3201 52.6599 85.3454 52.5951 85.3454 52.5255C85.3454 52.4432 85.3138 52.3768 85.2505 52.3262C85.1873 52.2755 85.1003 52.2328 84.9895 52.198C84.8819 52.1632 84.7586 52.13 84.6194 52.0984C84.4643 52.0636 84.3109 52.024 84.159 51.9797C84.0103 51.9354 83.8743 51.8785 83.7509 51.8089C83.6307 51.7393 83.5342 51.6491 83.4614 51.5384C83.3918 51.4276 83.357 51.2884 83.357 51.1208C83.357 50.9278 83.4045 50.7617 83.4994 50.6225C83.5974 50.4801 83.7398 50.3694 83.9265 50.2903C84.1131 50.2112 84.3378 50.1716 84.6004 50.1716C84.8661 50.1716 85.0923 50.2112 85.279 50.2903C85.4688 50.3662 85.616 50.4753 85.7204 50.6177C85.8248 50.7569 85.8817 50.923 85.8912 51.116L85.2743 51.2869C85.2743 51.1888 85.2584 51.1034 85.2268 51.0306C85.1952 50.9578 85.1509 50.8977 85.0939 50.8503C85.037 50.7996 84.9658 50.7617 84.8804 50.7364C84.7981 50.711 84.7032 50.6984 84.5956 50.6984C84.4722 50.6984 84.3647 50.7142 84.2729 50.7458C84.1843 50.7775 84.1163 50.8202 84.0689 50.874C84.0246 50.9278 84.0024 50.991 84.0024 51.0638C84.0024 51.1492 84.0372 51.2204 84.1068 51.2774C84.1796 51.3311 84.2745 51.3754 84.3916 51.4102C84.5118 51.445 84.6431 51.4783 84.7855 51.5099C84.9215 51.5384 85.0591 51.5748 85.1983 51.6191C85.3407 51.6602 85.472 51.7155 85.5922 51.7852C85.7156 51.8516 85.8137 51.9433 85.8865 52.0604C85.9624 52.1743 86.0004 52.3183 86.0004 52.4923C86.0004 52.6821 85.9497 52.8482 85.8485 52.9906C85.7473 53.1329 85.5954 53.2437 85.3929 53.3228C85.1936 53.3987 84.9468 53.4367 84.6526 53.4367Z" fill="#414042"/>
<path d="M89.305 53.3702V50.2381H89.9836V53.3702H89.305ZM87.2501 53.3702V50.2381H87.9335V53.3702H87.2501ZM87.6535 52.0652V51.5052H89.5755V52.0652H87.6535Z" fill="#414042"/>
<path d="M91.3915 53.3702V50.2381H92.0891V53.3702H91.3915Z" fill="#414042"/>
<path d="M94.851 53.4367C94.6232 53.4367 94.4191 53.4019 94.2388 53.3323C94.0584 53.2595 93.9034 53.1551 93.7737 53.019C93.6471 52.8798 93.5491 52.7106 93.4794 52.5112C93.413 52.3088 93.3798 52.0778 93.3798 51.8184C93.3798 51.4482 93.4446 51.1429 93.5744 50.9025C93.7041 50.6588 93.8812 50.4769 94.1059 50.3567C94.3337 50.2333 94.5899 50.1716 94.8747 50.1716C95.0961 50.1716 95.297 50.208 95.4774 50.2808C95.6577 50.3504 95.8112 50.4548 95.9377 50.594C96.0674 50.73 96.1671 50.9009 96.2367 51.1065C96.3063 51.309 96.3411 51.5415 96.3411 51.8041C96.3411 52.0731 96.3063 52.3088 96.2367 52.5112C96.1671 52.7137 96.0659 52.8846 95.933 53.0238C95.8033 53.1598 95.6467 53.2627 95.4632 53.3323C95.2796 53.4019 95.0756 53.4367 94.851 53.4367ZM94.8699 52.8909C95.0376 52.8909 95.1784 52.8498 95.2923 52.7675C95.4062 52.6853 95.4932 52.5666 95.5533 52.4116C95.6134 52.2566 95.6435 52.0667 95.6435 51.8421C95.6435 51.608 95.6118 51.4087 95.5486 51.2441C95.4885 51.0796 95.3999 50.9547 95.2828 50.8692C95.1658 50.7806 95.0234 50.7364 94.8557 50.7364C94.6912 50.7364 94.5504 50.7791 94.4333 50.8645C94.3194 50.9467 94.2308 51.067 94.1676 51.2252C94.1075 51.3833 94.0774 51.5795 94.0774 51.8136C94.0774 51.9845 94.0948 52.1379 94.1296 52.274C94.1676 52.4068 94.2198 52.5192 94.2862 52.6109C94.3527 52.7027 94.4349 52.7723 94.533 52.8197C94.6311 52.8672 94.7434 52.8909 94.8699 52.8909Z" fill="#414042"/>
<path d="M97.6304 53.3702V50.2381H98.5226L99.9416 52.4543H99.9938L99.9511 50.2381H100.615V53.3702H99.8087L98.3091 51.0496H98.2569L98.2996 53.3702H97.6304Z" fill="#414042"/>
<path d="M105.883 53.3702V50.2381H106.561V53.3702H105.883ZM103.828 53.3702V50.2381H104.511V53.3702H103.828ZM104.231 52.0652V51.5052H106.153V52.0652H104.231Z" fill="#414042"/>
<path d="M109.326 53.4367C109.098 53.4367 108.894 53.4019 108.714 53.3323C108.534 53.2595 108.379 53.1551 108.249 53.019C108.122 52.8798 108.024 52.7106 107.955 52.5112C107.888 52.3088 107.855 52.0778 107.855 51.8184C107.855 51.4482 107.92 51.1429 108.05 50.9025C108.179 50.6588 108.357 50.4769 108.581 50.3567C108.809 50.2333 109.065 50.1716 109.35 50.1716C109.571 50.1716 109.772 50.208 109.953 50.2808C110.133 50.3504 110.287 50.4548 110.413 50.594C110.543 50.73 110.642 50.9009 110.712 51.1065C110.782 51.309 110.816 51.5415 110.816 51.8041C110.816 52.0731 110.782 52.3088 110.712 52.5112C110.642 52.7137 110.541 52.8846 110.408 53.0238C110.279 53.1598 110.122 53.2627 109.938 53.3323C109.755 53.4019 109.551 53.4367 109.326 53.4367ZM109.345 52.8909C109.513 52.8909 109.654 52.8498 109.768 52.7675C109.882 52.6853 109.969 52.5666 110.029 52.4116C110.089 52.2566 110.119 52.0667 110.119 51.8421C110.119 51.608 110.087 51.4087 110.024 51.2441C109.964 51.0796 109.875 50.9547 109.758 50.8692C109.641 50.7806 109.499 50.7364 109.331 50.7364C109.167 50.7364 109.026 50.7791 108.909 50.8645C108.795 50.9467 108.706 51.067 108.643 51.2252C108.583 51.3833 108.553 51.5795 108.553 51.8136C108.553 51.9845 108.57 52.1379 108.605 52.274C108.643 52.4068 108.695 52.5192 108.762 52.6109C108.828 52.7027 108.91 52.7723 109.008 52.8197C109.106 52.8672 109.219 52.8909 109.345 52.8909Z" fill="#414042"/>
<path d="M113.492 53.4367C113.299 53.4367 113.126 53.4161 112.974 53.375C112.826 53.337 112.696 53.2816 112.585 53.2089C112.474 53.1329 112.381 53.0428 112.305 52.9384C112.232 52.8308 112.177 52.7106 112.139 52.5777C112.104 52.4448 112.087 52.2993 112.087 52.1411V50.2381H112.775V52.1174C112.775 52.2787 112.8 52.4132 112.851 52.5207C112.905 52.6251 112.984 52.7027 113.088 52.7533C113.193 52.8039 113.325 52.8292 113.487 52.8292C113.651 52.8292 113.786 52.8039 113.89 52.7533C113.998 52.7027 114.077 52.6251 114.127 52.5207C114.181 52.4132 114.208 52.2787 114.208 52.1174V50.2381H114.887V52.1411C114.887 52.5524 114.77 52.8719 114.536 53.0997C114.305 53.3243 113.957 53.4367 113.492 53.4367Z" fill="#414042"/>
<path d="M117.48 53.4367C117.275 53.4367 117.09 53.4161 116.925 53.375C116.764 53.337 116.625 53.2785 116.508 53.1994C116.394 53.1171 116.304 53.0159 116.237 52.8956C116.174 52.7723 116.137 52.6315 116.128 52.4733L116.726 52.2787C116.732 52.4211 116.767 52.5397 116.83 52.6346C116.897 52.7296 116.99 52.7992 117.11 52.8434C117.231 52.8877 117.365 52.9099 117.514 52.9099C117.656 52.9099 117.776 52.8925 117.874 52.8577C117.972 52.8229 118.047 52.777 118.097 52.7201C118.148 52.6599 118.173 52.5951 118.173 52.5255C118.173 52.4432 118.142 52.3768 118.078 52.3262C118.015 52.2755 117.928 52.2328 117.817 52.198C117.71 52.1632 117.586 52.13 117.447 52.0984C117.292 52.0636 117.139 52.024 116.987 51.9797C116.838 51.9354 116.702 51.8785 116.579 51.8089C116.459 51.7393 116.362 51.6491 116.289 51.5384C116.22 51.4276 116.185 51.2884 116.185 51.1208C116.185 50.9278 116.232 50.7617 116.327 50.6225C116.425 50.4801 116.568 50.3694 116.754 50.2903C116.941 50.2112 117.166 50.1716 117.428 50.1716C117.694 50.1716 117.92 50.2112 118.107 50.2903C118.297 50.3662 118.444 50.4753 118.548 50.6177C118.653 50.7569 118.71 50.923 118.719 51.116L118.102 51.2869C118.102 51.1888 118.086 51.1034 118.055 51.0306C118.023 50.9578 117.979 50.8977 117.922 50.8503C117.865 50.7996 117.794 50.7617 117.708 50.7364C117.626 50.711 117.531 50.6984 117.424 50.6984C117.3 50.6984 117.193 50.7142 117.101 50.7458C117.012 50.7775 116.944 50.8202 116.897 50.874C116.852 50.9278 116.83 50.991 116.83 51.0638C116.83 51.1492 116.865 51.2204 116.935 51.2774C117.007 51.3311 117.102 51.3754 117.219 51.4102C117.34 51.445 117.471 51.4783 117.613 51.5099C117.749 51.5384 117.887 51.5748 118.026 51.6191C118.169 51.6602 118.3 51.7155 118.42 51.7852C118.543 51.8516 118.642 51.9433 118.714 52.0604C118.79 52.1743 118.828 52.3183 118.828 52.4923C118.828 52.6821 118.778 52.8482 118.676 52.9906C118.575 53.1329 118.423 53.2437 118.221 53.3228C118.021 53.3987 117.775 53.4367 117.48 53.4367Z" fill="#414042"/>
<path d="M120.078 53.3702V50.2381H120.766V53.3702H120.078ZM120.553 53.3702V52.815H122.494V53.3702H120.553ZM120.553 52.0414V51.5336H122.256V52.0414H120.553ZM120.553 50.7886V50.2381H122.484V50.7886H120.553Z" fill="#414042"/>
<path d="M28.9664 45.798L32.0365 28.1338H32.9676L35.9686 45.798L28.9664 45.798Z" fill="#F7B633"/>
</svg>
