<svg width="483" height="106" viewBox="0 0 483 106" fill="none" xmlns="http://www.w3.org/2000/svg">
<path d="M58.4219 1.06143L76.3886 105.984H53.9202L51.8194 93.9879H24.5692L22.4684 105.984H0L17.9667 1.06143H58.4219ZM48.258 73.0194L39.5748 22.05H36.8738L28.1905 73.0194H48.258Z" fill="white"/>
<path d="M86.3709 52.0108H80.3886V31.0222H86.3709C86.671 11.3955 90.1122 1.94263 114.081 1.34181H138.79V22.3304H115.582C109.58 22.4906 107.799 25.4747 107.339 31.0222H123.825V52.0108H107.339V105.984H86.3709V52.0108Z" fill="white"/>
<path d="M176.043 31.3226H195.21V52.3112H177.543C165.119 52.4715 163.758 59.3608 163.758 68.0526V105.984H142.79V67.0112C142.931 44.821 146.072 31.9435 176.043 31.3427V31.3226Z" fill="white"/>
<path d="M199.21 13.4783C199.21 6.72914 204.892 1.04141 211.635 1.04141C218.377 1.04141 224.059 6.72914 224.059 13.4783C224.059 20.2275 218.377 25.9153 211.635 25.9153C204.892 25.9153 199.21 20.2275 199.21 13.4783ZM201.151 31.0222H222.119V105.984H201.151V31.0222Z" fill="white"/>
<path d="M252.008 31.0222L262.792 84.9957H266.694L277.478 31.0222H301.447L286.461 105.984H243.025L228.059 31.0222H252.028H252.008Z" fill="#F28221"/>
<path d="M305.447 13.4783C305.447 6.72914 311.129 1.04141 317.871 1.04141C324.614 1.04141 330.296 6.72914 330.296 13.4783C330.296 20.2275 324.614 25.9153 317.871 25.9153C311.129 25.9153 305.447 20.2275 305.447 13.4783ZM307.388 31.0222H328.355V105.984H307.388V31.0222Z" fill="#F28221"/>
<path d="M334.296 0H355.264V34.0263C359.766 29.9808 365.888 28.4788 373.831 28.4788C387.156 28.4788 404.682 35.0677 404.682 67.4518C404.682 99.8359 386.716 105.984 374.291 105.984C363.947 105.984 358.265 101.178 355.264 94.4486V104.943H334.296V0ZM369.189 84.9957C377.432 84.9957 383.274 80.3494 383.274 67.7522C383.274 59.0604 381.774 49.4673 368.889 49.4673C357.365 49.4673 355.264 59.0604 355.264 68.3531V71.0567C355.264 81.8514 361.266 84.9957 369.189 84.9957Z" fill="#F28221"/>
<path d="M445.496 28.9394C469.005 28.9394 479.049 41.2361 479.049 56.6771C479.049 66.13 477.408 70.6161 474.247 73.3198H430.371C432.471 81.8715 439.954 85.0157 451.038 85.0157C461.522 85.0157 468.565 81.571 473.207 77.9661C473.807 77.5255 474.247 77.3653 475.007 77.3653H476.208C477.108 77.3653 477.548 77.6657 477.708 78.7071L482.05 100.136C475.607 104.482 462.443 105.984 451.058 105.984C425.589 105.984 408.682 95.7904 408.682 67.3116C408.682 38.8329 425.609 28.9394 445.516 28.9394H445.496ZM445.336 49.928C436.793 49.928 432.311 53.5329 430.511 59.8214H460.162C460.162 55.7759 456.58 49.928 445.336 49.928Z" fill="#F28221"/>
</svg>
