<svg width="24" height="24" viewBox="0 0 24 24" fill="none" xmlns="http://www.w3.org/2000/svg">
<g clip-path="url(#clip0_48_773)">
<path d="M19.1248 22.3833H4.73088C2.83033 22.3833 1.28418 20.8404 1.28418 18.9437V4.58605C1.28418 2.68934 2.83033 1.14648 4.73088 1.14648H19.1248C21.0248 1.14648 22.571 2.68934 22.571 4.58605V18.9443C22.571 20.841 21.0248 22.3833 19.1248 22.3833ZM8.47704 18.7031H8.48143V9.54264H5.63143V18.7031H8.47649H8.47704ZM7.05451 8.29154C7.2712 8.29183 7.48582 8.24936 7.68607 8.16657C7.88632 8.08378 8.06827 7.9623 8.22149 7.80907C8.37472 7.65585 8.4962 7.4739 8.57899 7.27365C8.66178 7.0734 8.70425 6.85878 8.70396 6.64209C8.70309 6.2049 8.52903 5.78586 8.21988 5.47671C7.91074 5.16757 7.4917 4.99351 7.05451 4.99264C6.61709 4.99278 6.19763 5.16661 5.88833 5.47591C5.57903 5.78521 5.4052 6.20467 5.40506 6.64209C5.4052 7.07951 5.57903 7.49897 5.88833 7.80827C6.19763 8.11757 6.61709 8.29139 7.05451 8.29154ZM19.1413 18.7036V13.6817C19.1413 11.2141 18.6056 9.31572 15.7265 9.31572C14.3424 9.31572 13.4133 10.074 13.0314 10.7937H12.993V9.54264H10.2638V18.7031H13.1089V14.1701C13.1089 12.9745 13.3358 11.8179 14.8177 11.8179C16.2748 11.8179 16.2963 13.1849 16.2963 14.247V18.7031H19.1413V18.7036Z" fill="white"/>
</g>
<defs>
<clipPath id="clip0_48_773">
<rect width="21.4286" height="21.4286" fill="white" transform="translate(1.14355 1.14551)"/>
</clipPath>
</defs>
</svg>
