<svg width="24" height="24" fill="none" xmlns="http://www.w3.org/2000/svg"><g clip-path="url(#prefix__clip0_48_773)"><path d="M19.125 22.383H4.73a3.447 3.447 0 01-3.447-3.44V4.587a3.447 3.447 0 013.447-3.44h14.394c1.9 0 3.446 1.543 3.446 3.44v14.358a3.446 3.446 0 01-3.446 3.44zm-10.648-3.68h.004v-9.16h-2.85v9.16h2.846zM7.055 8.292A1.647 1.647 0 008.22 5.477a1.65 1.65 0 10-1.165 2.815zM19.14 18.704v-5.022c0-2.468-.535-4.366-3.414-4.366-1.385 0-2.314.758-2.696 1.478h-.038V9.543h-2.73v9.16h2.846V14.17c0-1.195.227-2.352 1.709-2.352 1.457 0 1.478 1.367 1.478 2.429v4.456h2.845z" fill="#fff"/></g><defs><clipPath id="prefix__clip0_48_773"><path fill="#fff" transform="translate(1.144 1.146)" d="M0 0h21.429v21.429H0z"/></clipPath></defs></svg>