<svg width="164" height="51" viewBox="0 0 164 51" fill="none" xmlns="http://www.w3.org/2000/svg">
<path d="M6.12069 0H19.8803L25.9942 35.688H18.3485L17.6336 31.6077H8.36064L7.64576 35.688H0L6.11388 0H6.12069ZM16.4217 24.4755L13.4669 7.13897H12.5478L9.59295 24.4755H16.4217Z" fill="#2D6E63"/>
<path d="M30.0792 17.3365H28.0435V10.1976H30.0792C30.1813 3.5218 31.3523 0.306533 39.5087 0.102173H47.917V7.24115H40.0193C37.9768 7.29565 37.3709 8.31063 37.2143 10.1976H42.8244V17.3365H37.2143V35.6948H30.0792V17.3365Z" fill="#2D6E63"/>
<path d="M56.128 10.2997H62.6504V17.4387H56.6386C52.4106 17.4932 51.9476 19.8365 51.9476 22.7929V35.6948H44.8125V22.4387C44.8602 14.891 45.9291 10.5109 56.128 10.3065V10.2997Z" fill="#2D6E63"/>
<path d="M64.6929 4.23024C64.6929 1.9346 66.6264 0 68.9208 0C71.2153 0 73.1488 1.9346 73.1488 4.23024C73.1488 6.52589 71.2153 8.4605 68.9208 8.4605C66.6264 8.4605 64.6929 6.52589 64.6929 4.23024ZM65.3533 10.1976H72.4884V35.6949H65.3533V10.1976Z" fill="#2D6E63"/>
<path d="M83.3476 10.1975L87.0173 28.5558H88.3449L92.0146 10.1975H100.171L95.0715 35.6948H80.2906L75.198 10.1975H83.3544H83.3476Z" fill="#F28221"/>
<path d="M102.207 4.23024C102.207 1.9346 104.14 0 106.435 0C108.729 0 110.663 1.9346 110.663 4.23024C110.663 6.52589 108.729 8.4605 106.435 8.4605C104.14 8.4605 102.207 6.52589 102.207 4.23024ZM102.867 10.1976H110.002V35.6949H102.867V10.1976Z" fill="#F28221"/>
<path d="M112.705 0H119.84V11.5736C121.372 10.1976 123.456 9.68666 126.159 9.68666C130.693 9.68666 136.657 11.9278 136.657 22.9428C136.657 33.9578 130.543 36.0491 126.315 36.0491C122.795 36.0491 120.862 34.4142 119.84 32.1254V35.6948H112.705V0.00680825V0ZM124.579 28.9101C127.384 28.9101 129.372 27.3297 129.372 23.045C129.372 20.0886 128.862 16.8256 124.477 16.8256C120.555 16.8256 119.84 20.0886 119.84 23.2493V24.169C119.84 27.8406 121.883 28.9101 124.579 28.9101Z" fill="#F28221"/>
<path d="M151.24 9.83655C159.24 9.83655 162.658 14.0191 162.658 19.2712C162.658 22.4864 162.1 24.0123 161.024 24.9319H146.093C146.808 27.8407 149.355 28.9101 153.126 28.9101C156.694 28.9101 159.09 27.7385 160.67 26.5123C160.874 26.3624 161.024 26.3079 161.283 26.3079H161.691C161.998 26.3079 162.147 26.4101 162.202 26.7644L163.679 34.0532C161.487 35.5314 157.007 36.0423 153.133 36.0423C144.466 36.0423 138.713 32.575 138.713 22.8883C138.713 13.2017 144.473 9.83655 151.247 9.83655H151.24ZM151.186 16.9755C148.279 16.9755 146.754 18.2017 146.141 20.3406H156.231C156.231 18.9646 155.012 16.9755 151.186 16.9755Z" fill="#F28221"/>
<path d="M0.765649 50.0944V43.1721H2.27597V50.0944H0.765649ZM1.48935 47.5037V46.2661H5.52736V47.5037H1.48935ZM1.48935 44.4621V43.1721H5.91543V44.4621H1.48935ZM7.47737 50.0944L9.84774 43.1721H12.0503L14.4207 50.0944H12.7845L11.0329 44.3677H10.8756L9.11355 50.0944H7.47737ZM8.80939 48.7309V47.703H13.3089V48.7309H8.80939ZM19.5128 50.2412C19.0583 50.2412 18.6492 50.1957 18.2856 50.1048C17.929 50.0209 17.6214 49.8916 17.3626 49.7168C17.1109 49.535 16.9116 49.3112 16.7648 49.0455C16.625 48.7728 16.5445 48.4617 16.5236 48.1121L17.8451 47.682C17.8591 47.9967 17.936 48.2589 18.0758 48.4687C18.2227 48.6784 18.429 48.8323 18.6947 48.9302C18.9604 49.028 19.2575 49.077 19.5862 49.077C19.9008 49.077 20.1665 49.0385 20.3833 48.9616C20.6 48.8847 20.7644 48.7833 20.8762 48.6575C20.9881 48.5246 21.044 48.3813 21.044 48.2274C21.044 48.0456 20.9741 47.8988 20.8343 47.7869C20.6944 47.675 20.5022 47.5807 20.2574 47.5037C20.0197 47.4268 19.747 47.3534 19.4393 47.2835C19.0967 47.2066 18.7576 47.1192 18.422 47.0213C18.0933 46.9234 17.7927 46.7975 17.52 46.6437C17.2543 46.4899 17.041 46.2906 16.8802 46.0459C16.7263 45.8011 16.6494 45.4935 16.6494 45.1229C16.6494 44.6964 16.7543 44.3293 16.9641 44.0216C17.1808 43.707 17.4955 43.4622 17.908 43.2874C18.3206 43.1126 18.817 43.0252 19.3974 43.0252C19.9847 43.0252 20.4847 43.1126 20.8972 43.2874C21.3167 43.4552 21.6419 43.6965 21.8726 44.0111C22.1034 44.3188 22.2292 44.6859 22.2502 45.1124L20.8867 45.49C20.8867 45.2732 20.8518 45.0844 20.7818 44.9236C20.7119 44.7628 20.614 44.6299 20.4882 44.525C20.3623 44.4132 20.205 44.3293 20.0162 44.2733C19.8344 44.2174 19.6246 44.1894 19.3869 44.1894C19.1142 44.1894 18.8765 44.2244 18.6737 44.2943C18.4779 44.3642 18.3276 44.4586 18.2227 44.5775C18.1248 44.6964 18.0758 44.8362 18.0758 44.997C18.0758 45.1858 18.1528 45.3431 18.3066 45.469C18.4674 45.5879 18.6772 45.6858 18.9359 45.7627C19.2016 45.8396 19.4918 45.913 19.8064 45.9829C20.1071 46.0459 20.4113 46.1263 20.7189 46.2242C21.0336 46.3151 21.3237 46.4374 21.5894 46.5913C21.8621 46.7381 22.0789 46.9409 22.2397 47.1996C22.4075 47.4513 22.4914 47.7694 22.4914 48.154C22.4914 48.5736 22.3796 48.9406 22.1558 49.2553C21.9321 49.5699 21.5964 49.8147 21.1489 49.9895C20.7084 50.1573 20.163 50.2412 19.5128 50.2412ZM29.7949 50.0944V43.1721H31.2948V50.0944H29.7949ZM25.2535 50.0944V43.1721H26.7638V50.0944H25.2535ZM26.145 47.2101V45.9724H30.3928V47.2101H26.145ZM34.4062 50.0944V43.1721H35.948V50.0944H34.4062ZM42.0519 50.2412C41.5484 50.2412 41.0974 50.1643 40.6989 50.0105C40.3003 49.8496 39.9577 49.6189 39.671 49.3182C39.3913 49.0106 39.1746 48.6365 39.0207 48.196C38.8739 47.7485 38.8005 47.238 38.8005 46.6647C38.8005 45.8466 38.9438 45.1718 39.2305 44.6404C39.5172 44.102 39.9088 43.7 40.4052 43.4343C40.9087 43.1616 41.475 43.0252 42.1043 43.0252C42.5938 43.0252 43.0378 43.1056 43.4363 43.2664C43.8349 43.4203 44.174 43.651 44.4537 43.9587C44.7404 44.2593 44.9606 44.6369 45.1145 45.0914C45.2683 45.5389 45.3452 46.0529 45.3452 46.6332C45.3452 47.2275 45.2683 47.7485 45.1145 48.196C44.9606 48.6435 44.7369 49.0211 44.4432 49.3287C44.1565 49.6294 43.8104 49.8566 43.4049 50.0105C42.9993 50.1643 42.5483 50.2412 42.0519 50.2412ZM42.0938 49.035C42.4644 49.035 42.7756 48.9441 43.0273 48.7623C43.279 48.5805 43.4713 48.3183 43.6042 47.9757C43.737 47.6331 43.8034 47.2136 43.8034 46.7171C43.8034 46.1997 43.7335 45.7592 43.5937 45.3956C43.4608 45.032 43.265 44.7558 43.0063 44.567C42.7476 44.3712 42.433 44.2733 42.0624 44.2733C41.6988 44.2733 41.3876 44.3677 41.1289 44.5565C40.8772 44.7383 40.6814 45.004 40.5416 45.3536C40.4087 45.7032 40.3423 46.1368 40.3423 46.6542C40.3423 47.0318 40.3807 47.3709 40.4577 47.6716C40.5416 47.9652 40.6569 48.2135 40.8038 48.4162C40.9506 48.619 41.1324 48.7728 41.3492 48.8777C41.5659 48.9826 41.8141 49.035 42.0938 49.035ZM48.1947 50.0944V43.1721H50.1665L53.3025 48.0701H53.4179L53.3235 43.1721H54.7919V50.0944H53.0088L49.6945 44.9656H49.5792L49.6735 50.0944H48.1947ZM66.4325 50.0944V43.1721H67.9323V50.0944H66.4325ZM61.891 50.0944V43.1721H63.4013V50.0944H61.891ZM62.7825 47.2101V45.9724H67.0303V47.2101H62.7825ZM74.0434 50.2412C73.5399 50.2412 73.0889 50.1643 72.6904 50.0105C72.2918 49.8496 71.9492 49.6189 71.6625 49.3182C71.3828 49.0106 71.1661 48.6365 71.0123 48.196C70.8654 47.7485 70.792 47.238 70.792 46.6647C70.792 45.8466 70.9353 45.1718 71.222 44.6404C71.5087 44.102 71.9003 43.7 72.3967 43.4343C72.9002 43.1616 73.4665 43.0252 74.0958 43.0252C74.5853 43.0252 75.0293 43.1056 75.4278 43.2664C75.8264 43.4203 76.1655 43.651 76.4452 43.9587C76.7319 44.2593 76.9522 44.6369 77.106 45.0914C77.2598 45.5389 77.3367 46.0529 77.3367 46.6332C77.3367 47.2275 77.2598 47.7485 77.106 48.196C76.9522 48.6435 76.7284 49.0211 76.4347 49.3287C76.148 49.6294 75.8019 49.8566 75.3964 50.0105C74.9908 50.1643 74.5398 50.2412 74.0434 50.2412ZM74.0853 49.035C74.4559 49.035 74.7671 48.9441 75.0188 48.7623C75.2705 48.5805 75.4628 48.3183 75.5957 47.9757C75.7285 47.6331 75.7949 47.2136 75.7949 46.7171C75.7949 46.1997 75.725 45.7592 75.5852 45.3956C75.4523 45.032 75.2565 44.7558 74.9978 44.567C74.7391 44.3712 74.4245 44.2733 74.0539 44.2733C73.6903 44.2733 73.3791 44.3677 73.1204 44.5565C72.8687 44.7383 72.6729 45.004 72.5331 45.3536C72.4002 45.7032 72.3338 46.1368 72.3338 46.6542C72.3338 47.0318 72.3722 47.3709 72.4492 47.6716C72.5331 47.9652 72.6484 48.2135 72.7953 48.4162C72.9421 48.619 73.1239 48.7728 73.3407 48.8777C73.5574 48.9826 73.8056 49.035 74.0853 49.035ZM83.2488 50.2412C82.8223 50.2412 82.4412 50.1957 82.1056 50.1048C81.7769 50.0209 81.4902 49.8986 81.2455 49.7378C81.0008 49.5699 80.7945 49.3707 80.6267 49.1399C80.4659 48.9022 80.3435 48.6365 80.2596 48.3428C80.1827 48.0491 80.1442 47.7275 80.1442 47.3779V43.1721H81.6651V47.3254C81.6651 47.682 81.721 47.9792 81.8329 48.2169C81.9517 48.4477 82.1265 48.619 82.3573 48.7309C82.588 48.8428 82.8817 48.8987 83.2383 48.8987C83.6019 48.8987 83.8991 48.8428 84.1298 48.7309C84.3676 48.619 84.5424 48.4477 84.6542 48.2169C84.7731 47.9792 84.8325 47.682 84.8325 47.3254V43.1721H86.3324V47.3779C86.3324 48.2869 86.0737 48.9931 85.5562 49.4965C85.0458 49.993 84.2767 50.2412 83.2488 50.2412ZM92.0647 50.2412C91.6102 50.2412 91.2011 50.1957 90.8375 50.1048C90.4809 50.0209 90.1733 49.8916 89.9146 49.7168C89.6628 49.535 89.4636 49.3112 89.3167 49.0455C89.1769 48.7728 89.0965 48.4617 89.0755 48.1121L90.397 47.682C90.411 47.9967 90.4879 48.2589 90.6278 48.4687C90.7746 48.6784 90.9809 48.8323 91.2466 48.9302C91.5123 49.028 91.8095 49.077 92.1381 49.077C92.4527 49.077 92.7184 49.0385 92.9352 48.9616C93.152 48.8847 93.3163 48.7833 93.4282 48.6575C93.54 48.5246 93.596 48.3813 93.596 48.2274C93.596 48.0456 93.526 47.8988 93.3862 47.7869C93.2464 47.675 93.0541 47.5807 92.8093 47.5037C92.5716 47.4268 92.2989 47.3534 91.9912 47.2835C91.6486 47.2066 91.3095 47.1192 90.9739 47.0213C90.6452 46.9234 90.3446 46.7975 90.0719 46.6437C89.8062 46.4899 89.5929 46.2906 89.4321 46.0459C89.2783 45.8011 89.2013 45.4935 89.2013 45.1229C89.2013 44.6964 89.3062 44.3293 89.516 44.0216C89.7328 43.707 90.0474 43.4622 90.4599 43.2874C90.8725 43.1126 91.3689 43.0252 91.9493 43.0252C92.5366 43.0252 93.0366 43.1126 93.4491 43.2874C93.8687 43.4552 94.1938 43.6965 94.4245 44.0111C94.6553 44.3188 94.7811 44.6859 94.8021 45.1124L93.4386 45.49C93.4386 45.2732 93.4037 45.0844 93.3338 44.9236C93.2638 44.7628 93.1659 44.6299 93.0401 44.525C92.9142 44.4132 92.7569 44.3293 92.5681 44.2733C92.3863 44.2174 92.1765 44.1894 91.9388 44.1894C91.6661 44.1894 91.4284 44.2244 91.2256 44.2943C91.0298 44.3642 90.8795 44.4586 90.7746 44.5775C90.6767 44.6964 90.6278 44.8362 90.6278 44.997C90.6278 45.1858 90.7047 45.3431 90.8585 45.469C91.0193 45.5879 91.2291 45.6858 91.4878 45.7627C91.7535 45.8396 92.0437 45.913 92.3583 45.9829C92.659 46.0459 92.9632 46.1263 93.2708 46.2242C93.5855 46.3151 93.8757 46.4374 94.1414 46.5913C94.4141 46.7381 94.6308 46.9409 94.7916 47.1996C94.9595 47.4513 95.0434 47.7694 95.0434 48.154C95.0434 48.5736 94.9315 48.9406 94.7077 49.2553C94.484 49.5699 94.1484 49.8147 93.7008 49.9895C93.2603 50.1573 92.7149 50.2412 92.0647 50.2412ZM97.8054 50.0944V43.1721H99.3262V50.0944H97.8054ZM98.8542 50.0944V48.8672H103.144V50.0944H98.8542ZM98.8542 47.1576V46.0354H102.62V47.1576H98.8542ZM98.8542 44.3887V43.1721H103.123V44.3887H98.8542Z" fill="#414042"/>
</svg>
