<svg width="1512" height="59" viewBox="0 0 1512 59" fill="none" xmlns="http://www.w3.org/2000/svg">
<path d="M12.8242 0L21.0511 46.6177H22.5997L30.8265 0H43.6668L33.3913 58.2683H10.2755L0 0H12.8403H12.8242Z" fill="#F28221"/>
<path d="M52.6063 58.2683L60.8331 11.6506H62.3817L70.6086 58.2683H83.4489L73.1734 0H50.0575L39.7821 58.2683H52.6224H52.6063Z" fill="#2D6E63"/>
<path d="M92.3888 0L100.616 46.6177H102.164L110.391 0H123.231L112.956 58.2683H89.8401L79.5646 0H92.4049H92.3888Z" fill="#F28221"/>
<path d="M132.171 58.2683L140.398 11.6506H141.946L150.173 58.2683H163.013L152.738 0H129.622L119.347 58.2683H132.187H132.171Z" fill="#2D6E63"/>
<path d="M171.953 0L180.18 46.6177H181.729L189.956 0H202.796L192.521 58.2683H169.405L159.129 0H171.97H171.953Z" fill="#F28221"/>
<path d="M211.735 58.2683L219.962 11.6506H221.511L229.738 58.2683H242.578L232.303 0H209.187L198.911 58.2683H211.752H211.735Z" fill="#2D6E63"/>
<path d="M251.518 0L259.745 46.6177H261.293L269.52 0H282.361L272.085 58.2683H248.969L238.694 0H251.534H251.518Z" fill="#F28221"/>
<path d="M291.3 58.2683L299.527 11.6506H301.076L309.302 58.2683H322.143L311.867 0H288.751L278.476 58.2683H291.316H291.3Z" fill="#2D6E63"/>
<path d="M331.083 0L339.309 46.6177H340.858L349.085 0H361.925L351.65 58.2683H328.534L318.258 0H331.099H331.083Z" fill="#F28221"/>
<path d="M370.865 58.2683L379.092 11.6506H380.64L388.867 58.2683H401.707L391.432 0H368.316L358.04 58.2683H370.881H370.865Z" fill="#2D6E63"/>
<path d="M410.647 0L418.874 46.6177H420.422L428.649 0H441.49L431.214 58.2683H408.098L397.823 0H410.663H410.647Z" fill="#F28221"/>
<path d="M450.429 58.2683L458.656 11.6506H460.205L468.432 58.2683H481.272L470.996 0H447.881L437.605 58.2683H450.445H450.429Z" fill="#2D6E63"/>
<path d="M490.212 0L498.439 46.6177H499.987L508.214 0H521.054L510.779 58.2683H487.663L477.387 0H490.228H490.212Z" fill="#F28221"/>
<path d="M529.994 58.2683L538.221 11.6506H539.769L547.996 58.2683H560.836L550.561 0H527.445L517.17 58.2683H530.01H529.994Z" fill="#2D6E63"/>
<path d="M569.776 0L578.003 46.6177H579.552L587.779 0H600.619L590.343 58.2683H567.227L556.952 0H569.792H569.776Z" fill="#F28221"/>
<path d="M609.558 58.2683L617.785 11.6506H619.334L627.561 58.2683H640.401L630.126 0H607.01L596.734 58.2683H609.575H609.558Z" fill="#2D6E63"/>
<path d="M649.341 0L657.568 46.6177H659.116L667.343 0H680.183L669.908 58.2683H646.792L636.517 0H649.357H649.341Z" fill="#F28221"/>
<path d="M689.123 58.2683L697.35 11.6506H698.898L707.125 58.2683H719.966L709.69 0H686.574L676.299 58.2683H689.139H689.123Z" fill="#2D6E63"/>
<path d="M728.905 0L737.132 46.6177H738.681L746.907 0H759.748L749.472 58.2683H726.356L716.081 0H728.921H728.905Z" fill="#F28221"/>
<path d="M768.688 58.2683L776.915 11.6506H778.463L786.69 58.2683H799.53L789.255 0H766.139L755.863 58.2683H768.704H768.688Z" fill="#2D6E63"/>
<path d="M808.47 0L816.697 46.6177H818.245L826.472 0H839.312L829.037 58.2683H805.921L795.646 0H808.486H808.47Z" fill="#F28221"/>
<path d="M848.252 58.2683L856.479 11.6506H858.028L866.255 58.2683H879.095L868.819 0H845.703L835.428 58.2683H848.268H848.252Z" fill="#2D6E63"/>
<path d="M888.034 0L896.261 46.6177H897.81L906.037 0H918.877L908.602 58.2683H885.486L875.21 0H888.05H888.034Z" fill="#F28221"/>
<path d="M927.817 58.2683L936.044 11.6506H937.592L945.819 58.2683H958.659L948.384 0H925.268L914.993 58.2683H927.833H927.817Z" fill="#2D6E63"/>
<path d="M967.599 0L975.826 46.6177H977.375L985.601 0H998.442L988.166 58.2683H965.05L954.775 0H967.615H967.599Z" fill="#F28221"/>
<path d="M1007.38 58.2683L1015.61 11.6506H1017.16L1025.38 58.2683H1038.22L1027.95 0H1004.83L994.557 58.2683H1007.4H1007.38Z" fill="#2D6E63"/>
<path d="M1047.16 0L1055.39 46.6177H1056.94L1065.17 0H1078.01L1067.73 58.2683H1044.61L1034.34 0H1047.18H1047.16Z" fill="#F28221"/>
<path d="M1086.95 58.2683L1095.17 11.6506H1096.72L1104.95 58.2683H1117.79L1107.51 0H1084.4L1074.12 58.2683H1086.96H1086.95Z" fill="#2D6E63"/>
<path d="M1126.73 0L1134.95 46.6177H1136.5L1144.73 0H1157.57L1147.3 58.2683H1124.18L1113.9 0H1126.74H1126.73Z" fill="#F28221"/>
<path d="M1166.51 58.2683L1174.74 11.6506H1176.29L1184.51 58.2683H1197.35L1187.08 0H1163.96L1153.69 58.2683H1166.53H1166.51Z" fill="#2D6E63"/>
<path d="M1206.29 0L1214.52 46.6177H1216.07L1224.3 0H1237.14L1226.86 58.2683H1203.74L1193.47 0H1206.31H1206.29Z" fill="#F28221"/>
<path d="M1246.07 58.2683L1254.3 11.6506H1255.85L1264.08 58.2683H1276.92L1266.64 0H1243.53L1233.25 58.2683H1246.09H1246.07Z" fill="#2D6E63"/>
<path d="M1285.86 0L1294.08 46.6177H1295.63L1303.86 0H1316.7L1306.42 58.2683H1283.31L1273.03 0H1285.87H1285.86Z" fill="#F28221"/>
<path d="M1325.64 58.2683L1333.87 11.6506H1335.41L1343.64 58.2683H1356.48L1346.21 0H1323.09L1312.82 58.2683H1325.66H1325.64Z" fill="#2D6E63"/>
<path d="M1365.42 0L1373.65 46.6177H1375.2L1383.42 0H1396.26L1385.99 58.2683H1362.87L1352.6 0H1365.44H1365.42Z" fill="#F28221"/>
<path d="M1405.2 58.2683L1413.43 11.6506H1414.98L1423.21 58.2683H1436.05L1425.77 0H1402.65L1392.38 58.2683H1405.22H1405.2Z" fill="#2D6E63"/>
<path d="M1444.99 0L1453.21 46.6177H1454.76L1462.99 0H1475.83L1465.55 58.2683H1442.44L1432.16 0H1445H1444.99Z" fill="#F28221"/>
<path d="M1484.77 58.2683L1492.99 11.6506H1494.54L1502.77 58.2683H1515.61L1505.34 0H1482.22L1471.94 58.2683H1484.78H1484.77Z" fill="#2D6E63"/>
<path d="M1524.55 0L1532.78 46.6177H1534.33L1542.55 0H1555.39L1545.12 58.2683H1522L1511.73 0H1524.57H1524.55Z" fill="#F28221"/>
<path d="M1564.33 58.2683L1572.56 11.6506H1574.11L1582.33 58.2683H1595.18L1584.9 0H1561.78L1551.51 58.2683H1564.35H1564.33Z" fill="#2D6E63"/>
<path d="M1604.11 0L1612.34 46.6177H1613.89L1622.12 0H1634.96L1624.68 58.2683H1601.57L1591.29 0H1604.13H1604.11Z" fill="#F28221"/>
<path d="M1643.9 58.2683L1652.12 11.6506H1653.67L1661.9 58.2683H1674.74L1664.46 0H1641.35L1631.07 58.2683H1643.91H1643.9Z" fill="#2D6E63"/>
<path d="M1683.68 0L1691.91 46.6177H1693.45L1701.68 0H1714.52L1704.25 58.2683H1681.13L1670.85 0H1683.7H1683.68Z" fill="#F28221"/>
<path d="M1723.46 58.2683L1731.69 11.6506H1733.24L1741.46 58.2683H1754.3L1744.03 0H1720.91L1710.64 58.2683H1723.48H1723.46Z" fill="#2D6E63"/>
<path d="M1763.24 0L1771.47 46.6177H1773.02L1781.25 0H1794.09L1783.81 58.2683H1760.69L1750.42 0H1763.26H1763.24Z" fill="#F28221"/>
<path d="M1803.03 58.2683L1811.25 11.6506H1812.8L1821.03 58.2683H1833.87L1823.59 0H1800.48L1790.2 58.2683H1803.04H1803.03Z" fill="#2D6E63"/>
<path d="M1842.81 0L1851.03 46.6177H1852.58L1860.81 0H1873.65L1863.38 58.2683H1840.26L1829.98 0H1842.82H1842.81Z" fill="#F28221"/>
<path d="M1882.59 58.2683L1890.82 11.6506H1892.37L1900.59 58.2683H1913.43L1903.16 0H1880.04L1869.77 58.2683H1882.61H1882.59Z" fill="#2D6E63"/>
<path d="M1922.37 0L1930.6 46.6177H1932.15L1940.37 0H1953.22L1942.94 58.2683H1919.82L1909.55 0H1922.39H1922.37Z" fill="#F28221"/>
<path d="M1962.15 58.2683L1970.38 11.6506H1971.93L1980.16 58.2683H1993L1982.72 0H1959.61L1949.33 58.2683H1962.17H1962.15Z" fill="#2D6E63"/>
<path d="M2001.94 0L2010.16 46.6177H2011.71L2019.94 0H2032.78L2022.5 58.2683H1999.39L1989.11 0H2001.95H2001.94Z" fill="#F28221"/>
<path d="M2041.72 58.2683L2049.95 11.6506H2051.49L2059.72 58.2683H2072.56L2062.29 0H2039.17L2028.9 58.2683H2041.74H2041.72Z" fill="#2D6E63"/>
<path d="M2081.5 0L2089.73 46.6177H2091.28L2099.5 0H2112.34L2102.07 58.2683H2078.95L2068.68 0H2081.52H2081.5Z" fill="#F28221"/>
<path d="M2121.28 58.2683L2129.51 11.6506H2131.06L2139.29 58.2683H2152.13L2141.85 0H2118.73L2108.46 58.2683H2121.3H2121.28Z" fill="#2D6E63"/>
<path d="M2161.07 0L2169.29 46.6177H2170.84L2179.07 0H2191.91L2181.63 58.2683H2158.52L2148.24 0H2161.08H2161.07Z" fill="#F28221"/>
<path d="M2200.85 58.2683L2209.07 11.6506H2210.62L2218.85 58.2683H2231.69L2221.42 0H2198.3L2188.02 58.2683H2200.86H2200.85Z" fill="#2D6E63"/>
<path d="M2240.63 0L2248.86 46.6177H2250.41L2258.63 0H2271.47L2261.2 58.2683H2238.08L2227.81 0H2240.65H2240.63Z" fill="#F28221"/>
<path d="M2280.41 58.2683L2288.64 11.6506H2290.19L2298.41 58.2683H2311.26L2300.98 0H2277.86L2267.59 58.2683H2280.43H2280.41Z" fill="#2D6E63"/>
<path d="M2320.19 0L2328.42 46.6177H2329.97L2338.2 0H2351.04L2340.76 58.2683H2317.65L2307.37 0H2320.21H2320.19Z" fill="#F28221"/>
<path d="M2359.98 58.2683L2368.2 11.6506H2369.75L2377.98 58.2683H2390.82L2380.54 0H2357.43L2347.15 58.2683H2359.99H2359.98Z" fill="#2D6E63"/>
<path d="M2399.76 0L2407.99 46.6177H2409.53L2417.76 0H2430.6L2420.33 58.2683H2397.21L2386.94 0H2399.78H2399.76Z" fill="#F28221"/>
<path d="M2439.54 58.2683L2447.77 11.6506H2449.32L2457.54 58.2683H2470.38L2460.11 0H2436.99L2426.72 58.2683H2439.56H2439.54Z" fill="#2D6E63"/>
<path d="M2479.32 0L2487.55 46.6177H2489.1L2497.33 0H2510.17L2499.89 58.2683H2476.77L2466.5 0H2479.34H2479.32Z" fill="#F28221"/>
<path d="M2519.11 58.2683L2527.33 11.6506H2528.88L2537.11 58.2683H2549.95L2539.67 0H2516.56L2506.28 58.2683H2519.12H2519.11Z" fill="#2D6E63"/>
<path d="M2558.89 0L2567.11 46.6177H2568.66L2576.89 0H2589.73L2579.46 58.2683H2556.34L2546.06 0H2558.9H2558.89Z" fill="#F28221"/>
<path d="M2598.67 58.2683L2606.9 11.6506H2608.45L2616.67 58.2683H2629.51L2619.24 0H2596.12L2585.85 58.2683H2598.69H2598.67Z" fill="#2D6E63"/>
<path d="M2638.45 0L2646.68 46.6177H2648.23L2656.45 0H2669.3L2659.02 58.2683H2635.9L2625.63 0H2638.47H2638.45Z" fill="#F28221"/>
<path d="M2678.23 58.2683L2686.46 11.6506H2688.01L2696.24 58.2683H2709.08L2698.8 0H2675.69L2665.41 58.2683H2678.25H2678.23Z" fill="#2D6E63"/>
<path d="M2718.02 0L2726.24 46.6177H2727.79L2736.02 0H2748.86L2738.58 58.2683H2715.47L2705.19 0H2718.03H2718.02Z" fill="#F28221"/>
<path d="M2757.8 58.2683L2766.03 11.6506H2767.57L2775.8 58.2683H2788.64L2778.37 0H2755.25L2744.98 58.2683H2757.82H2757.8Z" fill="#2D6E63"/>
<path d="M2797.58 0L2805.81 46.6177H2807.36L2815.58 0H2828.42L2818.15 58.2683H2795.03L2784.76 0H2797.6H2797.58Z" fill="#F28221"/>
<path d="M2837.36 58.2683L2845.59 11.6506H2847.14L2855.37 58.2683H2868.21L2857.93 0H2834.81L2824.54 58.2683H2837.38H2837.36Z" fill="#2D6E63"/>
<path d="M2877.15 0L2885.37 46.6177H2886.92L2895.15 0H2907.99L2897.71 58.2683H2874.6L2864.32 0H2877.16H2877.15Z" fill="#F28221"/>
<path d="M2916.93 58.2683L2925.16 11.6506H2926.7L2934.93 58.2683H2947.77L2937.5 0H2914.38L2904.1 58.2683H2916.94H2916.93Z" fill="#2D6E63"/>
<path d="M2956.71 0L2964.94 46.6177H2966.49L2974.71 0H2987.55L2977.28 58.2683H2954.16L2943.89 0H2956.73H2956.71Z" fill="#F28221"/>
<path d="M2996.49 58.2683L3004.72 11.6506H3006.27L3014.49 58.2683H3027.34L3017.06 0H2993.94L2983.67 58.2683H2996.51H2996.49Z" fill="#2D6E63"/>
<path d="M3036.27 0L3044.5 46.6177H3046.05L3054.28 0H3067.12L3056.84 58.2683H3033.73L3023.45 0H3036.29H3036.27Z" fill="#F28221"/>
<path d="M3076.06 58.2683L3084.28 11.6506H3085.83L3094.06 58.2683H3106.9L3096.62 0H3073.51L3063.23 58.2683H3076.07H3076.06Z" fill="#2D6E63"/>
<path d="M3115.84 0L3124.07 46.6177H3125.61L3133.84 0H3146.68L3136.41 58.2683H3113.29L3103.02 0H3115.86H3115.84Z" fill="#F28221"/>
<path d="M3155.62 58.2683L3163.85 11.6506H3165.4L3173.62 58.2683H3186.46L3176.19 0H3153.07L3142.8 58.2683H3155.64H3155.62Z" fill="#2D6E63"/>
</svg>
