<svg width="24" height="24" viewBox="0 0 24 24" fill="none" xmlns="http://www.w3.org/2000/svg">
<path fill-rule="evenodd" clip-rule="evenodd" d="M22.501 4.49927C22.501 2.84177 21.1585 1.49927 19.501 1.49927H4.50098C2.84348 1.49927 1.50098 2.84177 1.50098 4.49927V19.4993C1.50098 21.1568 2.84348 22.4993 4.50098 22.4993H19.501C21.1585 22.4993 22.501 21.1568 22.501 19.4993V4.49927Z" fill="white"/>
<path d="M5.65217 18.1036H7.15217L11.1572 13.5511L14.6409 18.0961H18.7134L13.3697 11.0311L17.8922 5.89355H16.3922L12.6759 10.1161L9.48842 5.8973H5.28467L10.4559 12.6436L5.64842 18.1073L5.65217 18.1036ZM7.56842 7.01855H8.93342L16.4559 16.9711H15.1997L7.57217 7.01855H7.56842Z" fill="#414042"/>
</svg>
